<svg width="22" height="20" viewBox="0 0 22 20" fill="none" xmlns="http://www.w3.org/2000/svg">
<path d="M13.25 0.5C12.6533 0.5 12.081 0.737053 11.659 1.15901C11.2371 1.58097 11 2.15326 11 2.75V5.75C11.0001 6.21523 11.1443 6.66901 11.413 7.04885C11.6816 7.42869 12.0614 7.71592 12.5 7.871V9.5C12.5001 9.64251 12.5407 9.78206 12.6172 9.9023C12.6937 10.0225 12.8029 10.1185 12.9319 10.1789C13.061 10.2394 13.2046 10.2618 13.3459 10.2436C13.4873 10.2253 13.6205 10.1672 13.73 10.076L16.22 8H19.25C19.8467 8 20.419 7.76295 20.841 7.34099C21.2629 6.91903 21.5 6.34674 21.5 5.75V2.75C21.5 2.15326 21.2629 1.58097 20.841 1.15901C20.419 0.737053 19.8467 0.5 19.25 0.5H13.25ZM12.5 2.75C12.5 2.55109 12.579 2.36032 12.7197 2.21967C12.8603 2.07902 13.0511 2 13.25 2H19.25C19.4489 2 19.6397 2.07902 19.7803 2.21967C19.921 2.36032 20 2.55109 20 2.75V5.75C20 5.94891 19.921 6.13968 19.7803 6.28033C19.6397 6.42098 19.4489 6.5 19.25 6.5H15.95C15.7746 6.50008 15.6047 6.56165 15.47 6.674L14 7.898V7.25C14 7.05109 13.921 6.86032 13.7803 6.71967C13.6397 6.57902 13.4489 6.5 13.25 6.5C13.0511 6.5 12.8603 6.42098 12.7197 6.28033C12.579 6.13968 12.5 5.94891 12.5 5.75V2.75ZM3.5 8C3.5 7.20435 3.81607 6.44129 4.37868 5.87868C4.94129 5.31607 5.70435 5 6.5 5C7.29565 5 8.05871 5.31607 8.62132 5.87868C9.18393 6.44129 9.5 7.20435 9.5 8C9.5 8.79565 9.18393 9.55871 8.62132 10.1213C8.05871 10.6839 7.29565 11 6.5 11C5.70435 11 4.94129 10.6839 4.37868 10.1213C3.81607 9.55871 3.5 8.79565 3.5 8ZM6.5 6.5C6.10218 6.5 5.72064 6.65804 5.43934 6.93934C5.15804 7.22064 5 7.60218 5 8C5 8.39782 5.15804 8.77936 5.43934 9.06066C5.72064 9.34196 6.10218 9.5 6.5 9.5C6.89782 9.5 7.27936 9.34196 7.56066 9.06066C7.84196 8.77936 8 8.39782 8 8C8 7.60218 7.84196 7.22064 7.56066 6.93934C7.27936 6.65804 6.89782 6.5 6.5 6.5ZM2.75 12.5H10.25C10.8467 12.5 11.419 12.7371 11.841 13.159C12.2629 13.581 12.5 14.1533 12.5 14.75C12.5 16.424 11.8115 17.765 10.682 18.6725C9.5705 19.565 8.0795 20 6.5 20C4.9205 20 3.4295 19.565 2.318 18.6725C1.19 17.765 0.5 16.424 0.5 14.75C0.5 14.1533 0.737053 13.581 1.15901 13.159C1.58097 12.7371 2.15326 12.5 2.75 12.5ZM10.25 14H2.75C2.55109 14 2.36032 14.079 2.21967 14.2197C2.07902 14.3603 2 14.5511 2 14.75C2 15.9755 2.4875 16.8845 3.257 17.5025C4.046 18.1355 5.18 18.5 6.5 18.5C7.82 18.5 8.954 18.1355 9.743 17.5025C10.5125 16.8845 11 15.9755 11 14.75C11 14.5511 10.921 14.3603 10.7803 14.2197C10.6397 14.079 10.4489 14 10.25 14Z" fill="white"/>
</svg>
