<svg width="91" height="55" viewBox="0 0 91 55" fill="none" xmlns="http://www.w3.org/2000/svg">
<path d="M45.9834 3.14766L32.2197 14.3258C29.9305 16.1793 29.4897 19.5156 31.2244 21.8967C33.0586 24.4346 36.6275 24.9336 39.0873 23.0088L53.2066 12.0018C54.2019 11.2318 55.6238 11.4029 56.4058 12.401C57.1878 13.399 57.003 14.8248 56.0077 15.609L53.0359 17.9187L78.2316 41.1875H84.175C87.943 41.1875 91 38.1221 91 34.3437V16.0937C91 12.3154 87.943 9.25 84.175 9.25H72.7005L72.1459 8.89355L61.8231 2.26367C59.6477 0.866406 57.1025 0.125 54.5147 0.125C51.415 0.125 48.4006 1.19434 45.9834 3.14766ZM49.2253 20.8844L41.8742 26.616C37.3953 30.1234 30.8973 29.2109 27.5417 24.5914C24.3852 20.2428 25.1814 14.1689 29.3475 10.7898L41.1775 1.19434C39.5281 0.495703 37.7508 0.139258 35.945 0.139258C33.2719 0.125 30.6698 0.923437 28.4375 2.40625L18.2 9.25H6.825C3.05703 9.25 0 12.3154 0 16.0937V34.3437C0 38.1221 3.05703 41.1875 6.825 41.1875H22.2097L35.2056 53.0785C37.9925 55.6307 42.3008 55.431 44.8459 52.6365C45.628 51.7668 46.1541 50.7545 46.4242 49.6994L48.8414 51.9236C51.6141 54.4758 55.9366 54.2904 58.4817 51.5102C59.1216 50.8115 59.5908 49.9988 59.8894 49.1576C62.6478 51.0111 66.4016 50.6262 68.7192 48.0883C71.2644 45.308 71.0795 40.9736 68.3069 38.4215L49.2253 20.8844Z" fill="black"/>
</svg>
