<svg width="34" height="34" viewBox="0 0 34 34" fill="none" xmlns="http://www.w3.org/2000/svg">
<path d="M30.9147 10.5273C30.7844 10.339 30.6104 10.185 30.4075 10.0787C30.2047 9.97235 29.9792 9.91676 29.7502 9.91668H10.3886L8.75375 5.99252C8.54002 5.4753 8.17719 5.0334 7.71147 4.72309C7.24575 4.41277 6.69821 4.24809 6.13858 4.25002H2.8335V7.08335H6.13858L12.8592 23.2121C12.9669 23.4702 13.1485 23.6906 13.3812 23.8456C13.6139 24.0007 13.8872 24.0834 14.1668 24.0833H25.5002C26.0909 24.0833 26.6193 23.7164 26.8276 23.1653L31.0776 11.832C31.1579 11.6176 31.185 11.3868 31.1567 11.1596C31.1283 10.9324 31.0453 10.7154 30.9147 10.5273Z" fill="white"/>
<path d="M14.875 29.75C16.0486 29.75 17 28.7986 17 27.625C17 26.4514 16.0486 25.5 14.875 25.5C13.7014 25.5 12.75 26.4514 12.75 27.625C12.75 28.7986 13.7014 29.75 14.875 29.75Z" fill="white"/>
<path d="M24.7915 29.75C25.9651 29.75 26.9165 28.7986 26.9165 27.625C26.9165 26.4514 25.9651 25.5 24.7915 25.5C23.6179 25.5 22.6665 26.4514 22.6665 27.625C22.6665 28.7986 23.6179 29.75 24.7915 29.75Z" fill="white"/>
</svg>
