<svg width="20" height="24" viewBox="0 0 20 24" fill="none" xmlns="http://www.w3.org/2000/svg">
<path d="M17.5467 10.9333C17.2401 10.5333 16.8667 10.1867 16.5201 9.84C15.6267 9.04 14.6134 8.46667 13.7601 7.62667C11.7734 5.68 11.3334 2.46667 12.6001 0C11.3334 0.306667 10.2267 1 9.28007 1.76C5.82673 4.53333 4.46673 9.42667 6.0934 13.6267C6.14673 13.76 6.20007 13.8933 6.20007 14.0667C6.20007 14.36 6.00007 14.6267 5.7334 14.7333C5.42673 14.8667 5.10673 14.7867 4.8534 14.5733C4.77773 14.5099 4.71444 14.4331 4.66673 14.3467C3.16007 12.44 2.92007 9.70667 3.9334 7.52C1.70673 9.33333 0.4934 12.4 0.666733 15.2933C0.746733 15.96 0.826733 16.6267 1.0534 17.2933C1.24007 18.0933 1.60007 18.8933 2.00007 19.6C3.44007 21.9067 5.9334 23.56 8.6134 23.8933C11.4667 24.2533 14.5201 23.7333 16.7067 21.76C19.1467 19.5467 20.0001 16 18.7467 12.96L18.5734 12.6133C18.2934 12 17.5467 10.9333 17.5467 10.9333ZM13.3334 19.3333C12.9601 19.6533 12.3467 20 11.8667 20.1333C10.3734 20.6667 8.88007 19.92 8.00007 19.04C9.58673 18.6667 10.5334 17.4933 10.8134 16.3067C11.0401 15.24 10.6134 14.36 10.4401 13.3333C10.2801 12.3467 10.3067 11.5067 10.6667 10.5867C10.9201 11.0933 11.1867 11.6 11.5067 12C12.5334 13.3333 14.1467 13.92 14.4934 15.7333C14.5467 15.92 14.5734 16.1067 14.5734 16.3067C14.6134 17.4 14.1334 18.6 13.3334 19.3333Z" fill="black"/>
</svg>
