<svg width="56" height="39" viewBox="0 0 56 39" fill="none" xmlns="http://www.w3.org/2000/svg">
<g clip-path="url(#clip0_580_1179)">
<path d="M54.7417 6.08292C54.4235 4.90719 53.8029 3.83531 52.9417 2.97403C52.0804 2.11274 51.0086 1.4921 49.8329 1.1739C45.5286 0 28.2052 0 28.2052 0C28.2052 0 10.881 0.0355332 6.57667 1.20943C5.40093 1.52765 4.32907 2.14833 3.46782 3.00965C2.60657 3.87098 1.98599 4.9429 1.66787 6.11867C0.365925 13.7666 -0.139125 25.4202 1.70362 32.7622C2.02177 33.9379 2.64237 35.0098 3.50362 35.8711C4.36486 36.7323 5.43671 37.353 6.61243 37.6712C10.9167 38.8451 28.2405 38.8451 28.2405 38.8451C28.2405 38.8451 45.5641 38.8451 49.8682 37.6712C51.0439 37.353 52.1158 36.7324 52.9771 35.8711C53.8384 35.0098 54.459 33.9379 54.7772 32.7622C56.1504 25.1034 56.5736 13.4569 54.7417 6.08292Z" fill="#FF0000"/>
<path d="M22.6914 27.7464L37.0625 19.4225L22.6914 11.0986V27.7464Z" fill="white"/>
</g>
<defs>
<clipPath id="clip0_580_1179">
<rect width="55.4667" height="39" fill="white" transform="translate(0.5)"/>
</clipPath>
</defs>
</svg>
