<svg width="49" height="38" viewBox="0 0 49 38" fill="none" xmlns="http://www.w3.org/2000/svg">
<g clip-path="url(#clip0_584_1437)">
<path d="M8.88693 37.811V35.296C8.88693 34.3316 8.29994 33.703 7.2938 33.703C6.79082 33.703 6.24584 33.8707 5.86851 34.4157C5.5752 33.9545 5.15606 33.703 4.52725 33.703C4.10791 33.703 3.68895 33.8287 3.35345 34.2898V33.7868H2.47314V37.811H3.35345V35.5893C3.35345 34.8768 3.73077 34.5413 4.31777 34.5413C4.90438 34.5413 5.19807 34.9186 5.19807 35.5893V37.811H6.07837V35.5893C6.07837 34.8768 6.49733 34.5413 7.04231 34.5413C7.62931 34.5413 7.92261 34.9186 7.92261 35.5893V37.811H8.88693ZM21.9236 33.7868H20.4985V32.5712H19.6182V33.7868H18.8217V34.5831H19.618V36.4278C19.618 37.3501 19.9953 37.8949 21.0015 37.8949C21.3788 37.8949 21.7978 37.7692 22.0915 37.6016L21.8398 36.8469C21.5883 37.0146 21.295 37.0566 21.0853 37.0566C20.6662 37.0566 20.4985 36.8051 20.4985 36.3857V34.5831H21.9236V33.7868ZM29.3854 33.7028C28.8824 33.7028 28.5471 33.9545 28.3374 34.2898V33.7868H27.4571V37.811H28.3374V35.5474C28.3374 34.8768 28.6307 34.4995 29.1757 34.4995C29.3433 34.4995 29.553 34.5415 29.7207 34.5833L29.9722 33.745C29.8045 33.703 29.553 33.703 29.3854 33.703M18.1091 34.1224C17.6898 33.8289 17.103 33.7032 16.4741 33.7032C15.4682 33.7032 14.7976 34.2062 14.7976 35.0027C14.7976 35.6735 15.3005 36.0506 16.1808 36.1765L16.6 36.2185C17.0611 36.3021 17.3126 36.4279 17.3126 36.6376C17.3126 36.9309 16.9773 37.1406 16.3903 37.1406C15.8033 37.1406 15.3424 36.9309 15.0489 36.7214L14.6297 37.3921C15.0909 37.7274 15.7197 37.895 16.3483 37.895C17.5221 37.895 18.1929 37.3503 18.1929 36.5956C18.1929 35.883 17.6479 35.5056 16.8095 35.38L16.3903 35.338C16.013 35.296 15.7197 35.2123 15.7197 34.9608C15.7197 34.6673 16.013 34.4997 16.4741 34.4997C16.9773 34.4997 17.4803 34.7092 17.7318 34.835L18.1091 34.1224ZM41.5001 33.7032C40.9969 33.7032 40.6616 33.9547 40.452 34.29V33.787H39.5716V37.8112H40.452V35.5476C40.452 34.877 40.7454 34.4997 41.2902 34.4997C41.4581 34.4997 41.6678 34.5417 41.8354 34.5835L42.0869 33.7452C41.9192 33.7032 41.6678 33.7032 41.5001 33.7032ZM30.2657 35.7991C30.2657 37.0147 31.1039 37.895 32.4036 37.895C32.9904 37.895 33.4095 37.7694 33.8287 37.4341L33.4095 36.7214C33.0742 36.9729 32.7389 37.0986 32.3616 37.0986C31.6489 37.0986 31.146 36.5956 31.146 35.7991C31.146 35.0447 31.6489 34.5415 32.3616 34.4997C32.7389 34.4997 33.0742 34.6253 33.4095 34.877L33.8287 34.1644C33.4095 33.8289 32.9904 33.7032 32.4036 33.7032C31.1039 33.7032 30.2657 34.5835 30.2657 35.7991ZM38.398 35.7991V33.787H37.5177V34.29C37.2242 33.9129 36.8051 33.7032 36.2601 33.7032C35.1283 33.7032 34.248 34.5835 34.248 35.7991C34.248 37.0147 35.1283 37.895 36.2601 37.895C36.8469 37.895 37.2663 37.6856 37.5177 37.3082V37.8112H38.398V35.7991ZM35.1701 35.7991C35.1701 35.0865 35.6313 34.4997 36.3858 34.4997C37.0984 34.4997 37.6016 35.0447 37.6016 35.7991C37.6016 36.5118 37.0984 37.0986 36.3858 37.0986C35.6313 37.0566 35.1701 36.5118 35.1701 35.7991ZM24.6485 33.7032C23.4747 33.7032 22.6363 34.5415 22.6363 35.7991C22.6363 37.0568 23.4745 37.895 24.6904 37.895C25.2772 37.895 25.8642 37.7274 26.3253 37.3503L25.906 36.7214C25.5707 36.9729 25.1515 37.1406 24.7324 37.1406C24.1874 37.1406 23.6424 36.8891 23.5166 36.1763H26.493V35.8411C26.535 34.5415 25.7805 33.7032 24.6485 33.7032ZM24.6483 34.4577C25.1931 34.4577 25.5707 34.7932 25.6543 35.422H23.5584C23.6422 34.877 24.0195 34.4577 24.6483 34.4577ZM46.4882 35.7991V32.1941H45.6079V34.29C45.3144 33.9129 44.8953 33.7032 44.3503 33.7032C43.2185 33.7032 42.3382 34.5835 42.3382 35.7991C42.3382 37.0147 43.2185 37.895 44.3503 37.895C44.9373 37.895 45.3564 37.6856 45.6079 37.3082V37.8112H46.4882V35.7991ZM43.2605 35.7991C43.2605 35.0865 43.7215 34.4997 44.4761 34.4997C45.1888 34.4997 45.6917 35.0447 45.6917 35.7991C45.6917 36.5118 45.1888 37.0986 44.4761 37.0986C43.7215 37.0566 43.2605 36.5118 43.2605 35.7991ZM13.833 35.7991V33.787H12.9527V34.29C12.6592 33.9129 12.2401 33.7032 11.6951 33.7032C10.5633 33.7032 9.68302 34.5835 9.68302 35.7991C9.68302 37.0147 10.5633 37.895 11.6951 37.895C12.2821 37.895 12.7013 37.6856 12.9527 37.3082V37.8112H13.833V35.7991ZM10.5633 35.7991C10.5633 35.0865 11.0245 34.4997 11.7789 34.4997C12.4916 34.4997 12.9948 35.0447 12.9948 35.7991C12.9948 36.5118 12.4916 37.0986 11.7789 37.0986C11.0245 37.0566 10.5633 36.5118 10.5633 35.7991Z" fill="black"/>
<path d="M17.8159 3.22778H31.0204V26.9541H17.8159V3.22778Z" fill="#FF5F00"/>
<path d="M18.6542 15.091C18.6542 10.2703 20.9178 5.99445 24.397 3.22771C21.8401 1.21562 18.6124 0 15.0912 0C6.74891 0 0 6.74891 0 15.091C0 23.433 6.74891 30.1819 15.091 30.1819C18.6122 30.1819 21.8399 28.9663 24.397 26.954C20.9178 24.2293 18.6542 19.9116 18.6542 15.091Z" fill="#EB001B"/>
<path d="M48.8359 15.091C48.8359 23.4328 42.087 30.1819 33.745 30.1819C30.2237 30.1819 26.996 28.9663 24.439 26.954C27.9602 24.1875 30.1819 19.9116 30.1819 15.091C30.1819 10.2703 27.9182 5.99445 24.439 3.22771C26.9958 1.21562 30.2237 0 33.745 0C42.087 0 48.8359 6.79092 48.8359 15.091Z" fill="#F79E1B"/>
</g>
<defs>
<clipPath id="clip0_584_1437">
<rect width="48.8844" height="38" fill="white"/>
</clipPath>
</defs>
</svg>
