<svg width="40" height="39" viewBox="0 0 40 39" fill="none" xmlns="http://www.w3.org/2000/svg">
<g clip-path="url(#clip0_580_1174)">
<path d="M30.1094 0H9.39062C4.3424 0 0.25 4.0924 0.25 9.14062V29.8594C0.25 34.9076 4.3424 39 9.39062 39H30.1094C35.1576 39 39.25 34.9076 39.25 29.8594V9.14062C39.25 4.0924 35.1576 0 30.1094 0Z" fill="url(#paint0_radial_580_1174)"/>
<path d="M30.1094 0H9.39062C4.3424 0 0.25 4.0924 0.25 9.14062V29.8594C0.25 34.9076 4.3424 39 9.39062 39H30.1094C35.1576 39 39.25 34.9076 39.25 29.8594V9.14062C39.25 4.0924 35.1576 0 30.1094 0Z" fill="url(#paint1_radial_580_1174)"/>
<path d="M19.7514 4.26562C15.614 4.26562 15.0947 4.28375 13.4698 4.35764C11.8479 4.43198 10.7408 4.68868 9.77225 5.06543C8.77013 5.45452 7.9202 5.97507 7.07348 6.82211C6.22599 7.66898 5.70543 8.51891 5.31513 9.52057C4.93731 10.4895 4.68031 11.597 4.60734 13.2181C4.53467 14.8432 4.51562 15.3626 4.51562 19.5002C4.51562 23.6377 4.53391 24.1553 4.60764 25.7802C4.68229 27.4021 4.93899 28.5092 5.31543 29.4778C5.70482 30.4799 6.22538 31.3298 7.07241 32.1765C7.91898 33.024 8.76891 33.5458 9.77027 33.9349C10.7396 34.3116 11.8469 34.5683 13.4684 34.6427C15.0935 34.7166 15.6123 34.7347 19.7495 34.7347C23.8874 34.7347 24.405 34.7166 26.0299 34.6427C27.6518 34.5683 28.7601 34.3116 29.7294 33.9349C30.7311 33.5458 31.5798 33.024 32.4262 32.1765C33.2737 31.3298 33.7941 30.4799 34.1846 29.4782C34.559 28.5092 34.8162 27.4018 34.8924 25.7805C34.9653 24.1556 34.9844 23.6377 34.9844 19.5002C34.9844 15.3626 34.9653 14.8435 34.8924 13.2184C34.8162 11.5966 34.559 10.4896 34.1846 9.52103C33.7941 8.51891 33.2737 7.66898 32.4262 6.82211C31.5789 5.97477 30.7314 5.45421 29.7285 5.06558C28.7573 4.68868 27.6496 4.43183 26.0278 4.35764C24.4027 4.28375 23.8854 4.26562 19.7466 4.26562H19.7514ZM18.3847 7.01101C18.7904 7.0104 19.243 7.01101 19.7514 7.01101C23.8191 7.01101 24.3011 7.02564 25.9074 7.09861C27.3928 7.16655 28.199 7.41472 28.736 7.62328C29.447 7.89933 29.9538 8.22946 30.4867 8.76281C31.0199 9.29602 31.3499 9.80378 31.6267 10.5148C31.8353 11.051 32.0838 11.8572 32.1514 13.3426C32.2244 14.9486 32.2402 15.4309 32.2402 19.4966C32.2402 23.5624 32.2244 24.0449 32.1514 25.6507C32.0834 27.1361 31.8353 27.9423 31.6267 28.4787C31.3507 29.1897 31.0199 29.6959 30.4867 30.2288C29.9535 30.762 29.4473 31.092 28.736 31.3682C28.1996 31.5777 27.3928 31.8252 25.9074 31.8932C24.3014 31.9661 23.8191 31.982 19.7514 31.982C15.6835 31.982 15.2013 31.9661 13.5955 31.8932C12.1101 31.8246 11.3039 31.5764 10.7664 31.3679C10.0556 31.0917 9.54769 30.7617 9.01449 30.2285C8.48128 29.6953 8.15131 29.1888 7.8745 28.4775C7.66594 27.9411 7.41747 27.1349 7.34983 25.6495C7.27686 24.0435 7.26223 23.5612 7.26223 19.4928C7.26223 15.4245 7.27686 14.9448 7.34983 13.3388C7.41777 11.8534 7.66594 11.0472 7.8745 10.5102C8.1507 9.79921 8.48129 9.29145 9.01464 8.75824C9.548 8.22504 10.0556 7.89491 10.7666 7.61825C11.3036 7.40878 12.1101 7.16122 13.5955 7.09297C15.0008 7.02944 15.5455 7.0104 18.3847 7.0072V7.01101ZM27.8835 9.54053C26.8742 9.54053 26.0554 10.3586 26.0554 11.368C26.0554 12.3773 26.8742 13.1962 27.8835 13.1962C28.8928 13.1962 29.7116 12.3773 29.7116 11.368C29.7116 10.3588 28.8928 9.53992 27.8835 9.53992V9.54053ZM19.7514 11.6765C15.4309 11.6765 11.9279 15.1795 11.9279 19.5002C11.9279 23.8208 15.4309 27.3221 19.7514 27.3221C24.072 27.3221 27.5738 23.8208 27.5738 19.5002C27.5738 15.1797 24.0717 11.6765 19.7511 11.6765H19.7514ZM19.7514 14.4219C22.5559 14.4219 24.8296 16.6954 24.8296 19.5002C24.8296 22.3046 22.5559 24.5784 19.7514 24.5784C16.9469 24.5784 14.6733 22.3046 14.6733 19.5002C14.6733 16.6954 16.9467 14.4219 19.7514 14.4219Z" fill="white"/>
</g>
<defs>
<radialGradient id="paint0_radial_580_1174" cx="0" cy="0" r="1" gradientUnits="userSpaceOnUse" gradientTransform="translate(10.6094 42.0038) rotate(-90) scale(38.6519 35.9493)">
<stop stop-color="#FFDD55"/>
<stop offset="0.1" stop-color="#FFDD55"/>
<stop offset="0.5" stop-color="#FF543E"/>
<stop offset="1" stop-color="#C837AB"/>
</radialGradient>
<radialGradient id="paint1_radial_580_1174" cx="0" cy="0" r="1" gradientUnits="userSpaceOnUse" gradientTransform="translate(-6.28265 2.80937) rotate(78.681) scale(17.2776 71.2189)">
<stop stop-color="#3771C8"/>
<stop offset="0.128" stop-color="#3771C8"/>
<stop offset="1" stop-color="#6600FF" stop-opacity="0"/>
</radialGradient>
<clipPath id="clip0_580_1174">
<rect width="39" height="39" fill="white" transform="translate(0.25)"/>
</clipPath>
</defs>
</svg>
