<svg width="23" height="23" viewBox="0 0 23 23" fill="none" xmlns="http://www.w3.org/2000/svg">
<path d="M10.0582 2.02392C10.4738 0.575624 12.5262 0.575626 12.9418 2.02392L14.3656 6.98514C14.5555 7.64684 15.1714 8.09433 15.8594 8.07046L21.0178 7.89148C22.5237 7.83923 23.1579 9.7911 21.9089 10.6339L17.6305 13.5212C17.0598 13.9062 16.8246 14.6303 17.0599 15.2773L18.8241 20.1279C19.3391 21.5439 17.6788 22.7502 16.4912 21.8228L12.4232 18.646C11.8807 18.2223 11.1193 18.2223 10.5768 18.646L6.50876 21.8228C5.32121 22.7502 3.66085 21.5439 4.17588 20.1279L5.94013 15.2773C6.17543 14.6303 5.94017 13.9062 5.36954 13.5212L1.09112 10.6339C-0.157852 9.7911 0.47635 7.83923 1.9822 7.89148L7.14058 8.07046C7.82857 8.09433 8.4445 7.64684 8.63439 6.98514L10.0582 2.02392Z" fill="#004AAD"/>
</svg>
