<svg width="81" height="56" viewBox="0 0 81 56" fill="none" xmlns="http://www.w3.org/2000/svg">
<path d="M0 0V5.09091H48.0938V43.2727H32.5114C31.3824 38.8971 27.4691 35.6364 22.7812 35.6364C18.0934 35.6364 14.1801 38.8971 13.0511 43.2727H10.125V30.5455H5.0625V48.3636H13.0511C14.1801 52.7393 18.0934 56 22.7812 56C27.4691 56 31.3824 52.7393 32.5114 48.3636H53.5511C54.6801 52.7393 58.5934 56 63.2812 56C67.9691 56 71.8824 52.7393 73.0114 48.3636H81V27.6029L80.8405 27.2033L75.778 11.9305L75.2287 10.1818H53.1562V0H0ZM2.53125 10.1818V15.2727H25.3125V10.1818H2.53125ZM53.1562 15.2727H71.5863L75.9375 28.3182V43.2727H73.0114C71.8824 38.8971 67.9691 35.6364 63.2812 35.6364C58.5934 35.6364 54.6801 38.8971 53.5511 43.2727H53.1562V15.2727ZM5.0625 20.3636V25.4545H20.25V20.3636H5.0625ZM22.7812 40.7273C25.6087 40.7273 27.8438 42.9749 27.8438 45.8182C27.8438 48.6615 25.6087 50.9091 22.7812 50.9091C19.9538 50.9091 17.7188 48.6615 17.7188 45.8182C17.7188 42.9749 19.9538 40.7273 22.7812 40.7273ZM63.2812 40.7273C66.1087 40.7273 68.3438 42.9749 68.3438 45.8182C68.3438 48.6615 66.1087 50.9091 63.2812 50.9091C60.4538 50.9091 58.2188 48.6615 58.2188 45.8182C58.2188 42.9749 60.4538 40.7273 63.2812 40.7273Z" fill="#004AAD"/>
</svg>
