<svg width="30" height="21" viewBox="0 0 30 21" fill="none" xmlns="http://www.w3.org/2000/svg">
<path d="M0 0V1.90909H17.8125V16.2273H12.0413C11.6231 14.5864 10.1737 13.3636 8.4375 13.3636C6.70125 13.3636 5.25187 14.5864 4.83375 16.2273H3.75V11.4545H1.875V18.1364H4.83375C5.25187 19.7772 6.70125 21 8.4375 21C10.1737 21 11.6231 19.7772 12.0413 18.1364H19.8337C20.2519 19.7772 21.7013 21 23.4375 21C25.1737 21 26.6231 19.7772 27.0413 18.1364H30V10.3511L29.9409 10.2012L28.0659 4.47395L27.8625 3.81818H19.6875V0H0ZM0.9375 3.81818V5.72727H9.375V3.81818H0.9375ZM19.6875 5.72727H26.5134L28.125 10.6193V16.2273H27.0413C26.6231 14.5864 25.1737 13.3636 23.4375 13.3636C21.7013 13.3636 20.2519 14.5864 19.8337 16.2273H19.6875V5.72727ZM1.875 7.63636V9.54545H7.5V7.63636H1.875ZM8.4375 15.2727C9.48469 15.2727 10.3125 16.1156 10.3125 17.1818C10.3125 18.248 9.48469 19.0909 8.4375 19.0909C7.39031 19.0909 6.5625 18.248 6.5625 17.1818C6.5625 16.1156 7.39031 15.2727 8.4375 15.2727ZM23.4375 15.2727C24.4847 15.2727 25.3125 16.1156 25.3125 17.1818C25.3125 18.248 24.4847 19.0909 23.4375 19.0909C22.3903 19.0909 21.5625 18.248 21.5625 17.1818C21.5625 16.1156 22.3903 15.2727 23.4375 15.2727Z" fill="black"/>
</svg>
