<svg width="20" height="16" viewBox="0 0 20 16" fill="none" xmlns="http://www.w3.org/2000/svg">
<path d="M18.3728 12.6104C18.739 12.4432 19.0494 12.1742 19.2671 11.8355C19.4847 11.4968 19.6004 11.1027 19.6004 10.7V9.24445C19.6005 8.58332 19.3822 7.94068 18.9794 7.41639C18.5767 6.89211 18.012 6.51556 17.3732 6.34525L14.8616 5.67565L13.0112 2.34325C12.7513 1.87544 12.3711 1.48565 11.9098 1.21431C11.4486 0.942961 10.9231 0.799932 10.388 0.800049H6.33079C5.701 0.800023 5.08717 0.998201 4.5763 1.3665C4.06542 1.73479 3.68341 2.25453 3.48439 2.85205L2.49679 5.81365C1.88864 6.00574 1.35754 6.38665 0.980563 6.90108C0.603589 7.41551 0.400366 8.03668 0.400391 8.67445V10.7C0.400391 11.5484 0.904391 12.2792 1.62799 12.6104C1.72409 13.3125 2.06561 13.9579 2.59205 14.4323C3.11849 14.9067 3.79585 15.1794 4.50412 15.2021C5.21239 15.2248 5.90583 14.996 6.46158 14.5564C7.01733 14.1167 7.39951 13.4945 7.54039 12.8H12.4604C12.6013 13.4945 12.9835 14.1167 13.5392 14.5564C14.0949 14.996 14.7884 15.2248 15.4967 15.2021C16.2049 15.1794 16.8823 14.9067 17.4087 14.4323C17.9352 13.9579 18.2767 13.3125 18.3728 12.6104ZM6.33079 2.00005H7.60039V5.60005H3.83239L4.62199 3.23125C4.74145 2.87258 4.97081 2.56063 5.27752 2.33964C5.58424 2.11865 5.95275 1.99983 6.33079 2.00005ZM11.9612 2.92645L13.448 5.60005H8.80039V2.00005H10.388C10.709 2.00015 11.0241 2.08611 11.3008 2.24899C11.5774 2.41188 11.8054 2.64578 11.9612 2.92645ZM2.80039 12.2C2.80039 11.9637 2.84695 11.7296 2.93741 11.5112C3.02787 11.2928 3.16045 11.0944 3.3276 10.9273C3.49474 10.7601 3.69317 10.6275 3.91156 10.5371C4.12995 10.4466 4.36401 10.4 4.60039 10.4C4.83677 10.4 5.07083 10.4466 5.28922 10.5371C5.50761 10.6275 5.70604 10.7601 5.87318 10.9273C6.04033 11.0944 6.17292 11.2928 6.26337 11.5112C6.35383 11.7296 6.40039 11.9637 6.40039 12.2C6.40039 12.6774 6.21075 13.1353 5.87318 13.4728C5.53562 13.8104 5.07778 14 4.60039 14C4.123 14 3.66516 13.8104 3.3276 13.4728C2.99003 13.1353 2.80039 12.6774 2.80039 12.2ZM13.6004 12.2C13.6004 11.7227 13.79 11.2648 14.1276 10.9273C14.4652 10.5897 14.923 10.4 15.4004 10.4C15.8778 10.4 16.3356 10.5897 16.6732 10.9273C17.0107 11.2648 17.2004 11.7227 17.2004 12.2C17.2004 12.6774 17.0107 13.1353 16.6732 13.4728C16.3356 13.8104 15.8778 14 15.4004 14C14.923 14 14.4652 13.8104 14.1276 13.4728C13.79 13.1353 13.6004 12.6774 13.6004 12.2Z" fill="black"/>
</svg>
