<svg width="61" height="24" viewBox="0 0 61 24" fill="none" xmlns="http://www.w3.org/2000/svg">
<g clip-path="url(#clip0_584_1936)">
<path d="M42.6972 6.47736C44.3531 6.47736 45.6328 6.929 46.6114 7.8323C47.5898 8.73547 48.0414 9.93983 48.0414 11.4452V18.6711H45.9338V17.0154H45.8585C44.9554 18.3703 43.6757 19.0477 42.1703 19.0477C40.8907 19.0477 39.7616 18.6712 38.8584 17.9187C38.0304 17.1659 37.5035 16.1122 37.5035 14.9831C37.5035 13.7787 37.9551 12.8002 38.8584 12.0475C39.7616 11.2948 41.0412 10.9937 42.5467 10.9937C43.9015 10.9937 44.9554 11.2196 45.7832 11.7464V11.2196C45.7832 10.517 45.521 9.81453 44.9964 9.35677L44.88 9.26253C44.2778 8.73559 43.5251 8.43453 42.6972 8.43453C41.4176 8.43453 40.4391 8.96144 39.7616 10.0152L37.8047 8.81065C39.0089 7.22995 40.5896 6.47736 42.6972 6.47736ZM32.0841 1.35889C33.4347 1.35889 34.7182 1.82889 35.7444 2.70536L35.9229 2.86418C36.9767 3.76747 37.5035 5.12242 37.5035 6.55253C37.5035 7.98265 36.9767 9.2623 35.9229 10.2408C34.8691 11.2192 33.5895 11.7462 32.0841 11.7462L28.4711 11.6709V18.6711H26.2129V1.35889H32.0841ZM42.9982 12.8001C42.095 12.8001 41.3423 13.0259 40.7402 13.4775C40.138 13.8538 39.8369 14.3807 39.8369 15.0581C39.8369 15.6603 40.1381 16.1871 40.5896 16.4883C41.1165 16.8647 41.7187 17.0904 42.3209 17.0904C43.1638 17.0904 44.0069 16.7625 44.6663 16.1681L44.8048 16.0367C45.5575 15.3592 45.9338 14.5312 45.9338 13.6279C45.2564 13.1011 44.2778 12.7999 42.9983 12.7999M32.2348 3.4663H28.4712V9.4883H32.2348C33.0627 9.4883 33.8907 9.18724 34.4176 8.58512C35.6218 7.45606 35.6218 5.5743 34.4929 4.44512L34.4176 4.36983C33.8154 3.76771 33.0627 3.39136 32.2347 3.46665M60.2352 6.85371L52.7835 23.9402H50.5254L53.3103 17.9938L48.4177 6.929H50.8264L54.3641 15.4345H54.4394L57.9018 6.929H60.2352V6.85371Z" fill="#5F6368"/>
<path d="M19.5143 10.1655C19.5143 9.48812 19.439 8.81071 19.3637 8.1333H9.95508V11.9721H15.2992C15.0734 13.1764 14.396 14.3054 13.3423 14.9829V17.4668H16.5788C18.4606 15.7357 19.5144 13.1764 19.5144 10.1657" fill="#4285F4"/>
<path d="M9.95415 19.8755C12.6638 19.8755 14.9219 18.9722 16.5779 17.4668L13.3413 14.9829C12.438 15.5851 11.309 15.9614 9.95415 15.9614C7.39485 15.9614 5.13674 14.2302 4.38403 11.8215H1.07227V14.3807C2.80344 17.7679 6.19062 19.8755 9.95415 19.8755Z" fill="#34A853"/>
<path d="M4.38444 11.8216C3.93291 10.6172 3.93291 9.26241 4.38444 7.98276V5.42358H1.07268C-0.357559 8.20864 -0.357559 11.5205 1.07268 14.3808L4.38444 11.8216Z" fill="#FBBC04"/>
<path d="M9.95417 3.91816C11.3843 3.91816 12.7391 4.4451 13.793 5.42357L16.6532 2.56333C14.8466 0.907334 12.438 -0.0711364 10.0293 0.00404006C6.26581 0.00404006 2.80346 2.11169 1.14746 5.49886L4.45934 8.05804C5.13676 5.64933 7.39487 3.91816 9.95417 3.91816Z" fill="#EA4335"/>
</g>
<defs>
<clipPath id="clip0_584_1936">
<rect width="60.2353" height="24" fill="white"/>
</clipPath>
</defs>
</svg>
