<svg width="21" height="24" viewBox="0 0 21 24" fill="none" xmlns="http://www.w3.org/2000/svg">
<g clip-path="url(#clip0_584_1927)">
<path d="M17.2585 1.8682C16.1512 0.606054 14.1495 0.0649414 11.5887 0.0649414H4.15668C3.90331 0.0649023 3.65823 0.155276 3.46554 0.319806C3.27285 0.484337 3.14519 0.712225 3.10553 0.962478L0.0109601 20.589C-0.0505498 20.976 0.249132 21.3265 0.641397 21.3265H5.22969L6.38201 14.0175L6.34625 14.2464C6.42834 13.7298 6.87019 13.3487 7.39342 13.3487H9.57377C13.8571 13.3487 17.2109 11.6089 18.1906 6.57617C18.2197 6.42733 18.2449 6.28245 18.2667 6.14092C18.143 6.07543 18.143 6.07543 18.2667 6.14092C18.5584 4.28076 18.2647 3.01456 17.2585 1.8682Z" fill="#27346A"/>
<path d="M8.13766 5.47082C8.26307 5.411 8.40028 5.38004 8.53922 5.38023H14.3658C15.0558 5.38023 15.6993 5.42513 16.2874 5.51978C16.452 5.54603 16.6157 5.57736 16.7783 5.61371C17.0088 5.66458 17.2366 5.72683 17.4609 5.80023C17.7501 5.89678 18.0193 6.00923 18.2668 6.14092C18.5584 4.28004 18.2647 3.01456 17.2585 1.8682C16.1506 0.606054 14.1495 0.0649414 11.5887 0.0649414H4.15605C3.63274 0.0649414 3.18754 0.445922 3.10553 0.962478L0.0109606 20.5883C-0.0505494 20.9759 0.249133 21.3259 0.640762 21.3259H5.22969L7.62039 6.16539C7.64392 6.01638 7.70329 5.87532 7.79339 5.75433C7.88349 5.63334 8.00164 5.53605 8.13766 5.47082Z" fill="#27346A"/>
<path d="M18.1901 6.57613C17.2104 11.6082 13.8566 13.3487 9.57325 13.3487H7.39227C6.86904 13.3487 6.42711 13.7297 6.34581 14.2464L4.91224 23.3342C4.85868 23.6729 5.12062 23.9798 5.46329 23.9798H9.33111C9.55267 23.9797 9.76694 23.9006 9.93538 23.7567C10.1038 23.6128 10.2154 23.4135 10.25 23.1946L10.2877 22.9975L11.0167 18.3775L11.0636 18.1221C11.0983 17.9033 11.2098 17.704 11.3782 17.5601C11.5467 17.4161 11.7609 17.337 11.9825 17.3369H12.5613C16.3081 17.3369 19.2419 15.8148 20.0992 11.4124C20.4571 9.57271 20.2719 8.03671 19.3253 6.95782C19.0382 6.63104 18.6816 6.36116 18.2662 6.14087C18.2437 6.28312 18.2193 6.42728 18.1901 6.57613Z" fill="#2790C3"/>
<path d="M17.2412 5.7321C17.0884 5.6875 16.9342 5.64801 16.7788 5.61369C16.6161 5.57792 16.4524 5.54681 16.2879 5.52039C15.6992 5.42511 15.0561 5.38013 14.3655 5.38013H8.53966C8.40063 5.3799 8.26335 5.41111 8.1381 5.47144C8.0019 5.53643 7.8836 5.63366 7.79345 5.75469C7.7033 5.87572 7.64402 6.0169 7.62075 6.16601L6.38244 14.0175L6.34668 14.2464C6.42814 13.7297 6.86999 13.3487 7.3933 13.3487H9.57428C13.8576 13.3487 17.2114 11.6089 18.1911 6.57616C18.2202 6.42731 18.2447 6.28307 18.2672 6.1409C18.0192 6.01004 17.7505 5.89668 17.4614 5.80084C17.3884 5.77665 17.315 5.75373 17.2412 5.7321" fill="#1F264F"/>
</g>
<defs>
<clipPath id="clip0_584_1927">
<rect width="20.3444" height="24" fill="white"/>
</clipPath>
</defs>
</svg>
