<svg width="20" height="20" viewBox="0 0 20 20" fill="none" xmlns="http://www.w3.org/2000/svg">
<path d="M8.58366 7.521C8.58366 7.42706 8.54635 7.33698 8.47993 7.27056C8.41351 7.20414 8.32342 7.16683 8.22949 7.16683C8.13556 7.16683 8.04548 7.20414 7.97906 7.27056C7.91264 7.33698 7.87533 7.42706 7.87533 7.521V15.3127C7.87533 15.4066 7.91264 15.4967 7.97906 15.5631C8.04548 15.6295 8.13556 15.6668 8.22949 15.6668C8.32342 15.6668 8.41351 15.6295 8.47993 15.5631C8.54635 15.4967 8.58366 15.4066 8.58366 15.3127V7.521ZM11.7712 7.16683C11.8651 7.16683 11.9552 7.20414 12.0216 7.27056C12.088 7.33698 12.1253 7.42706 12.1253 7.521V15.3127C12.1253 15.4066 12.088 15.4967 12.0216 15.5631C11.9552 15.6295 11.8651 15.6668 11.7712 15.6668C11.6772 15.6668 11.5871 15.6295 11.5207 15.5631C11.4543 15.4967 11.417 15.4066 11.417 15.3127V7.521C11.417 7.42706 11.4543 7.33698 11.5207 7.27056C11.5871 7.20414 11.6772 7.16683 11.7712 7.16683ZM13.1878 3.271V3.62516H18.8545C18.9484 3.62516 19.0385 3.66248 19.1049 3.7289C19.1713 3.79531 19.2087 3.8854 19.2087 3.97933C19.2087 4.07326 19.1713 4.16334 19.1049 4.22976C19.0385 4.29618 18.9484 4.3335 18.8545 4.3335H17.0532L15.9 17.0176C15.8281 17.8099 15.4625 18.5466 14.875 19.0831C14.2876 19.6195 13.5208 19.9169 12.7253 19.9168H7.27537C6.47984 19.9169 5.71304 19.6195 5.12561 19.0831C4.53817 18.5466 4.17257 17.8099 4.10062 17.0176L2.94745 4.3335H1.14616C1.05223 4.3335 0.962144 4.29618 0.895725 4.22976C0.829306 4.16334 0.791992 4.07326 0.791992 3.97933C0.791992 3.8854 0.829306 3.79531 0.895725 3.7289C0.962144 3.66248 1.05223 3.62516 1.14616 3.62516H6.81283V3.271C6.81283 2.42562 7.14865 1.61487 7.74642 1.01709C8.34419 0.419321 9.15495 0.0834961 10.0003 0.0834961C10.8457 0.0834961 11.6565 0.419321 12.2542 1.01709C12.852 1.61487 13.1878 2.42562 13.1878 3.271ZM7.52116 3.271V3.62516H12.4795V3.271C12.4795 2.61348 12.2183 1.98289 11.7534 1.51796C11.2884 1.05303 10.6578 0.791829 10.0003 0.791829C9.34281 0.791829 8.71222 1.05303 8.24729 1.51796C7.78236 1.98289 7.52116 2.61348 7.52116 3.271ZM3.65933 4.3335L4.80683 16.9539C4.86284 17.5698 5.14703 18.1425 5.60362 18.5596C6.0602 18.9768 6.65621 19.2082 7.27466 19.2085H12.7246C13.3433 19.2086 13.9396 18.9773 14.3965 18.5601C14.8534 18.143 15.1378 17.57 15.1938 16.9539L16.342 4.3335H3.65933Z" fill="black"/>
</svg>
