<svg width="20" height="13" viewBox="0 0 20 13" fill="none" xmlns="http://www.w3.org/2000/svg">
<path d="M0.9375 0.75H19.0625C19.3111 0.75 19.5496 0.848772 19.7254 1.02459C19.9012 1.2004 20 1.43886 20 1.6875C20 1.93614 19.9012 2.1746 19.7254 2.35041C19.5496 2.52623 19.3111 2.625 19.0625 2.625H0.9375C0.68886 2.625 0.450403 2.52623 0.274587 2.35041C0.098772 2.1746 0 1.93614 0 1.6875C0 1.43886 0.098772 1.2004 0.274587 1.02459C0.450403 0.848772 0.68886 0.75 0.9375 0.75ZM3.75 6.6875C3.75 6.43886 3.84877 6.2004 4.02459 6.02459C4.2004 5.84877 4.43886 5.75 4.6875 5.75H15.3125C15.5611 5.75 15.7996 5.84877 15.9754 6.02459C16.1512 6.2004 16.25 6.43886 16.25 6.6875C16.25 6.93614 16.1512 7.1746 15.9754 7.35041C15.7996 7.52623 15.5611 7.625 15.3125 7.625H4.6875C4.43886 7.625 4.2004 7.52623 4.02459 7.35041C3.84877 7.1746 3.75 6.93614 3.75 6.6875ZM7.5 11.6875C7.5 11.4389 7.59877 11.2004 7.77459 11.0246C7.9504 10.8488 8.18886 10.75 8.4375 10.75H11.5625C11.8111 10.75 12.0496 10.8488 12.2254 11.0246C12.4012 11.2004 12.5 11.4389 12.5 11.6875C12.5 11.9361 12.4012 12.1746 12.2254 12.3504C12.0496 12.5262 11.8111 12.625 11.5625 12.625H8.4375C8.18886 12.625 7.9504 12.5262 7.77459 12.3504C7.59877 12.1746 7.5 11.9361 7.5 11.6875Z" fill="white"/>
</svg>
