<svg width="23" height="22" viewBox="0 0 23 22" fill="none" xmlns="http://www.w3.org/2000/svg">
<path d="M22.0526 10.9994H7.99289M3.03016 10.9994H1M3.03016 10.9994C3.03016 10.3415 3.29153 9.71048 3.75677 9.24524C4.222 8.78 4.85301 8.51863 5.51095 8.51863C6.1689 8.51863 6.7999 8.78 7.26514 9.24524C7.73038 9.71048 7.99175 10.3415 7.99175 10.9994C7.99175 11.6574 7.73038 12.2884 7.26514 12.7536C6.7999 13.2189 6.1689 13.4802 5.51095 13.4802C4.85301 13.4802 4.222 13.2189 3.75677 12.7536C3.29153 12.2884 3.03016 11.6574 3.03016 10.9994ZM22.0526 18.5181H15.5115M15.5115 18.5181C15.5115 19.1762 15.2495 19.8079 14.7842 20.2732C14.3188 20.7386 13.6877 21 13.0296 21C12.3716 21 11.7406 20.7375 11.2754 20.2723C10.8102 19.807 10.5488 19.176 10.5488 18.5181M15.5115 18.5181C15.5115 17.86 15.2495 17.2294 14.7842 16.764C14.3188 16.2987 13.6877 16.0373 13.0296 16.0373C12.3716 16.0373 11.7406 16.2986 11.2754 16.7639C10.8102 17.2291 10.5488 17.8601 10.5488 18.5181M10.5488 18.5181H1M22.0526 3.4808H18.5192M13.5565 3.4808H1M13.5565 3.4808C13.5565 2.82285 13.8178 2.19185 14.2831 1.72661C14.7483 1.26137 15.3793 1 16.0373 1C16.3631 1 16.6856 1.06417 16.9866 1.18884C17.2876 1.31351 17.5611 1.49625 17.7915 1.72661C18.0218 1.95697 18.2046 2.23045 18.3292 2.53144C18.4539 2.83242 18.5181 3.15501 18.5181 3.4808C18.5181 3.80658 18.4539 4.12917 18.3292 4.43016C18.2046 4.73114 18.0218 5.00462 17.7915 5.23498C17.5611 5.46535 17.2876 5.64808 16.9866 5.77275C16.6856 5.89743 16.3631 5.96159 16.0373 5.96159C15.3793 5.96159 14.7483 5.70022 14.2831 5.23498C13.8178 4.76974 13.5565 4.13874 13.5565 3.4808Z" stroke="black" stroke-opacity="0.7" stroke-width="1.5" stroke-miterlimit="10" stroke-linecap="round"/>
</svg>
