<svg width="14" height="13" viewBox="0 0 14 13" fill="none" xmlns="http://www.w3.org/2000/svg">
<path d="M11.7956 2.24062C10.8528 1.29179 9.64952 0.64425 8.33826 0.380095C7.02701 0.115939 5.66685 0.24706 4.4302 0.756834C3.19355 1.26661 2.13611 2.13208 1.39191 3.24354C0.64772 4.355 0.250288 5.6624 0.25 6.99999V10.5C0.25 10.9641 0.434374 11.4092 0.762563 11.7374C1.09075 12.0656 1.53587 12.25 2 12.25H3C3.46413 12.25 3.90925 12.0656 4.23744 11.7374C4.56563 11.4092 4.75 10.9641 4.75 10.5V7.99999C4.75 7.53586 4.56563 7.09074 4.23744 6.76256C3.90925 6.43437 3.46413 6.24999 3 6.24999H1.8025C1.9835 5.00054 2.60843 3.85806 3.56289 3.03169C4.51735 2.20531 5.7375 1.75032 7 1.74999H7.04C8.29687 1.75537 9.50979 2.2131 10.4569 3.03943C11.4039 3.86576 12.0218 5.00545 12.1975 6.24999H11C10.5359 6.24999 10.0908 6.43437 9.76256 6.76256C9.43437 7.09074 9.25 7.53586 9.25 7.99999V10.5C9.25 10.9641 9.43437 11.4092 9.76256 11.7374C10.0908 12.0656 10.5359 12.25 11 12.25H12C12.2298 12.25 12.4574 12.2047 12.6697 12.1168C12.882 12.0288 13.0749 11.8999 13.2374 11.7374C13.3999 11.5749 13.5288 11.382 13.6168 11.1697C13.7047 10.9574 13.75 10.7298 13.75 10.5V6.99999C13.7534 6.11711 13.5826 5.24222 13.2472 4.42551C12.9118 3.60879 12.4185 2.8663 11.7956 2.24062ZM3 7.74999C3.0663 7.74999 3.12989 7.77633 3.17678 7.82322C3.22366 7.8701 3.25 7.93369 3.25 7.99999V10.5C3.25 10.5663 3.22366 10.6299 3.17678 10.6768C3.12989 10.7237 3.0663 10.75 3 10.75H2C1.9337 10.75 1.87011 10.7237 1.82322 10.6768C1.77634 10.6299 1.75 10.5663 1.75 10.5V7.74999H3ZM12.25 10.5C12.25 10.5663 12.2237 10.6299 12.1768 10.6768C12.1299 10.7237 12.0663 10.75 12 10.75H11C10.9337 10.75 10.8701 10.7237 10.8232 10.6768C10.7763 10.6299 10.75 10.5663 10.75 10.5V7.99999C10.75 7.93369 10.7763 7.8701 10.8232 7.82322C10.8701 7.77633 10.9337 7.74999 11 7.74999H12.25V10.5Z" fill="black" fill-opacity="0.7"/>
</svg>
