<svg width="28" height="28" viewBox="0 0 28 28" fill="none" xmlns="http://www.w3.org/2000/svg">
<path d="M28 26.5356L20.1787 18.7142C22.0582 16.4578 22.9954 13.5637 22.7954 10.6339C22.5954 7.70404 21.2736 4.9641 19.1049 2.98404C16.9362 1.00398 14.0876 -0.0637612 11.1518 0.00294769C8.21586 0.0696566 5.41872 1.26567 3.3422 3.3422C1.26567 5.41872 0.0696566 8.21586 0.00294769 11.1518C-0.0637612 14.0876 1.00398 16.9362 2.98404 19.1049C4.9641 21.2736 7.70404 22.5954 10.6339 22.7954C13.5637 22.9954 16.4578 22.0582 18.7142 20.1787L26.5356 28L28 26.5356ZM2.10837 11.4294C2.10837 9.58584 2.65503 7.78372 3.67924 6.25089C4.70344 4.71806 6.15918 3.52337 7.86237 2.81788C9.56555 2.1124 11.4397 1.92781 13.2478 2.28747C15.0559 2.64712 16.7167 3.53486 18.0203 4.83842C19.3239 6.14198 20.2116 7.80282 20.5712 9.61092C20.9309 11.419 20.7463 13.2932 20.0408 14.9963C19.3353 16.6995 18.1406 18.1553 16.6078 19.1795C15.075 20.2037 13.2729 20.7503 11.4294 20.7503C8.95811 20.7476 6.58888 19.7647 4.84145 18.0173C3.09402 16.2698 2.11111 13.9006 2.10837 11.4294Z" fill="white"/>
</svg>
