<svg width="25" height="20" viewBox="0 0 25 20" fill="none" xmlns="http://www.w3.org/2000/svg">
<g clip-path="url(#clip0_648_3731)">
<path d="M24.3566 13.75H23.7321V9.52734C23.7321 9.03125 23.533 8.55469 23.1817 8.20312L19.2823 4.30078C18.931 3.94922 18.4548 3.75 17.9591 3.75H16.2377V1.875C16.2377 0.839844 15.3985 0 14.3642 0H4.3717C3.33732 0 2.49811 0.839844 2.49811 1.875V3.75H0.312264C0.140519 3.75 0 3.89062 0 4.0625V4.6875C0 4.85938 0.140519 5 0.312264 5H10.9292C11.101 5 11.2415 5.14062 11.2415 5.3125V5.9375C11.2415 6.10938 11.101 6.25 10.9292 6.25H1.56132C1.38958 6.25 1.24906 6.39062 1.24906 6.5625V7.1875C1.24906 7.35938 1.38958 7.5 1.56132 7.5H9.68019C9.85193 7.5 9.99245 7.64062 9.99245 7.8125V8.4375C9.99245 8.60938 9.85193 8.75 9.68019 8.75H0.312264C0.140519 8.75 0 8.89062 0 9.0625V9.6875C0 9.85938 0.140519 10 0.312264 10H8.43113C8.60288 10 8.7434 10.1406 8.7434 10.3125V10.9375C8.7434 11.1094 8.60288 11.25 8.43113 11.25H2.49811V16.25C2.49811 18.3203 4.17653 20 6.24528 20C8.31403 20 9.99245 18.3203 9.99245 16.25H14.9887C14.9887 18.3203 16.6671 20 18.7358 20C20.8046 20 22.483 18.3203 22.483 16.25H24.3566C24.7001 16.25 24.9811 15.9688 24.9811 15.625V14.375C24.9811 14.0312 24.7001 13.75 24.3566 13.75ZM6.24528 18.125C5.21091 18.125 4.3717 17.2852 4.3717 16.25C4.3717 15.2148 5.21091 14.375 6.24528 14.375C7.27966 14.375 8.11887 15.2148 8.11887 16.25C8.11887 17.2852 7.27966 18.125 6.24528 18.125ZM18.7358 18.125C17.7015 18.125 16.8623 17.2852 16.8623 16.25C16.8623 15.2148 17.7015 14.375 18.7358 14.375C19.7702 14.375 20.6094 15.2148 20.6094 16.25C20.6094 17.2852 19.7702 18.125 18.7358 18.125ZM21.8585 10H16.2377V5.625H17.9591L21.8585 9.52734V10Z" fill="#FFE800"/>
</g>
<defs>
<clipPath id="clip0_648_3731">
<rect width="24.9811" height="20" fill="white"/>
</clipPath>
</defs>
</svg>
