<svg width="18" height="18" viewBox="0 0 18 18" fill="none" xmlns="http://www.w3.org/2000/svg">
<path d="M8.16699 13.2536H9.83366V8.25357H8.16699V13.2536ZM9.00033 6.5869C9.23644 6.5869 9.43449 6.5069 9.59449 6.3469C9.75449 6.1869 9.83422 5.98913 9.83366 5.75357C9.8331 5.51802 9.7531 5.32024 9.59366 5.16024C9.43421 5.00024 9.23644 4.92024 9.00033 4.92024C8.76422 4.92024 8.56644 5.00024 8.40699 5.16024C8.24755 5.32024 8.16755 5.51802 8.16699 5.75357C8.16644 5.98913 8.24644 6.18718 8.40699 6.34774C8.56755 6.50829 8.76533 6.58802 9.00033 6.5869ZM9.00033 17.4202C7.84755 17.4202 6.76422 17.2013 5.75033 16.7636C4.73644 16.3258 3.85449 15.7322 3.10449 14.9827C2.35449 14.2333 1.76088 13.3513 1.32366 12.3369C0.886438 11.3225 0.667549 10.2391 0.666993 9.0869C0.666438 7.93468 0.885327 6.85135 1.32366 5.8369C1.76199 4.82246 2.3556 3.94052 3.10449 3.19107C3.85338 2.44163 4.73533 1.84802 5.75033 1.41024C6.76533 0.97246 7.84866 0.753571 9.00033 0.753571C10.152 0.753571 11.2353 0.97246 12.2503 1.41024C13.2653 1.84802 14.1473 2.44163 14.8962 3.19107C15.6451 3.94052 16.2389 4.82246 16.6778 5.8369C17.1167 6.85135 17.3353 7.93468 17.3337 9.0869C17.332 10.2391 17.1131 11.3225 16.677 12.3369C16.2409 13.3513 15.6473 14.2333 14.8962 14.9827C14.1451 15.7322 13.2631 16.3261 12.2503 16.7644C11.2375 17.2027 10.1542 17.4213 9.00033 17.4202ZM9.00033 15.7536C10.8614 15.7536 12.4378 15.1077 13.7295 13.8161C15.0212 12.5244 15.667 10.948 15.667 9.0869C15.667 7.22579 15.0212 5.6494 13.7295 4.35774C12.4378 3.06607 10.8614 2.42024 9.00033 2.42024C7.13921 2.42024 5.56283 3.06607 4.27116 4.35774C2.97949 5.6494 2.33366 7.22579 2.33366 9.0869C2.33366 10.948 2.97949 12.5244 4.27116 13.8161C5.56283 15.1077 7.13921 15.7536 9.00033 15.7536Z" fill="black" fill-opacity="0.7"/>
</svg>
