<svg width="12" height="12" viewBox="0 0 12 12" fill="none" xmlns="http://www.w3.org/2000/svg">
<path d="M6.66667 0C6.83659 0.000188472 7.00002 0.0652528 7.12358 0.181899C7.24714 0.298545 7.32149 0.457969 7.33145 0.627597C7.34141 0.797224 7.28622 0.964253 7.17716 1.09455C7.0681 1.22486 6.9134 1.3086 6.74467 1.32867L6.66667 1.33333H1.33333V10.6667H10.6667V5.33333C10.6669 5.16341 10.7319 4.99998 10.8486 4.87642C10.9652 4.75286 11.1246 4.67851 11.2943 4.66855C11.4639 4.65859 11.6309 4.71378 11.7612 4.82284C11.8915 4.9319 11.9753 5.0866 11.9953 5.25533L12 5.33333V10.6667C12.0001 11.0031 11.8731 11.327 11.6443 11.5737C11.4156 11.8204 11.1021 11.9714 10.7667 11.9967L10.6667 12H1.33333C0.996949 12.0001 0.672956 11.8731 0.426301 11.6443C0.179647 11.4156 0.0285623 11.1021 0.00333348 10.7667L6.68453e-08 10.6667V1.33333C-0.000106386 0.996949 0.126938 0.672956 0.355665 0.426301C0.584392 0.179647 0.897897 0.0285622 1.23333 0.00333341L1.33333 0H6.66667ZM10.8287 0.228667C10.9486 0.109101 11.1096 0.0396843 11.2789 0.0345146C11.4482 0.0293449 11.6131 0.0888101 11.7402 0.200833C11.8672 0.312855 11.9469 0.469034 11.9629 0.63765C11.979 0.806265 11.9303 0.974672 11.8267 1.10867L11.7713 1.172L5.17133 7.77133C5.05136 7.8909 4.89038 7.96032 4.72108 7.96549C4.55178 7.97066 4.38686 7.91119 4.25981 7.79917C4.13277 7.68715 4.05313 7.53097 4.03707 7.36235C4.02101 7.19374 4.06973 7.02533 4.17333 6.89133L4.22867 6.82867L10.8287 0.228667Z" fill="black" fill-opacity="0.7"/>
</svg>
