<svg width="21" height="20" viewBox="0 0 21 20" fill="none" xmlns="http://www.w3.org/2000/svg">
<path d="M19.5 9.87391H7.145M2.784 9.87391H1M2.784 9.87391C2.784 9.29574 3.01368 8.74125 3.42251 8.33242C3.83134 7.92359 4.38583 7.69391 4.964 7.69391C5.54217 7.69391 6.09666 7.92359 6.50549 8.33242C6.91432 8.74125 7.144 9.29574 7.144 9.87391C7.144 10.4521 6.91432 11.0066 6.50549 11.4154C6.09666 11.8242 5.54217 12.0539 4.964 12.0539C4.38583 12.0539 3.83134 11.8242 3.42251 11.4154C3.01368 11.0066 2.784 10.4521 2.784 9.87391ZM19.5 16.4809H13.752M13.752 16.4809C13.752 17.0592 13.5218 17.6143 13.1128 18.0233C12.7039 18.4322 12.1493 18.6619 11.571 18.6619C10.9928 18.6619 10.4383 18.4312 10.0295 18.0224C9.62068 17.6136 9.391 17.0591 9.391 16.4809M13.752 16.4809C13.752 15.9026 13.5218 15.3485 13.1128 14.9396C12.7039 14.5306 12.1493 14.3009 11.571 14.3009C10.9928 14.3009 10.4383 14.5306 10.0295 14.9394C9.62068 15.3483 9.391 15.9027 9.391 16.4809M9.391 16.4809H1M19.5 3.26691H16.395M12.034 3.26691H1M12.034 3.26691C12.034 2.68874 12.2637 2.13425 12.6725 1.72542C13.0813 1.31659 13.6358 1.08691 14.214 1.08691C14.5003 1.08691 14.7838 1.1433 15.0483 1.25286C15.3127 1.36241 15.5531 1.52299 15.7555 1.72542C15.9579 1.92785 16.1185 2.16817 16.2281 2.43266C16.3376 2.69715 16.394 2.98063 16.394 3.26691C16.394 3.5532 16.3376 3.83667 16.2281 4.10116C16.1185 4.36565 15.9579 4.60597 15.7555 4.80841C15.5531 5.01084 15.3127 5.17142 15.0483 5.28097C14.7838 5.39053 14.5003 5.44691 14.214 5.44691C13.6358 5.44691 13.0813 5.21724 12.6725 4.80841C12.2637 4.39958 12.034 3.84509 12.034 3.26691Z" stroke="black" stroke-opacity="0.7" stroke-width="1.5" stroke-miterlimit="10" stroke-linecap="round"/>
</svg>
