<svg width="18" height="12" viewBox="0 0 18 12" fill="none" xmlns="http://www.w3.org/2000/svg">
<path d="M17.4535 5.13602L15.8002 3.60002L14.3335 0.666686C14.2076 0.461873 14.031 0.292946 13.8208 0.17618C13.6106 0.0594141 13.3739 -0.00125436 13.1335 1.96592e-05H4.86683C4.6264 -0.00125436 4.38969 0.0594141 4.17951 0.17618C3.96933 0.292946 3.79277 0.461873 3.66683 0.666686L2.20016 3.60002L0.54683 5.13602C0.479476 5.19849 0.425759 5.2742 0.389048 5.3584C0.352337 5.44261 0.333424 5.53349 0.333496 5.62535V11.3334C0.333496 11.5102 0.403734 11.6797 0.528758 11.8048C0.653783 11.9298 0.823352 12 1.00016 12H3.66683C3.9335 12 4.3335 11.7334 4.3335 11.4667V10.6667H13.6668V11.3334C13.6668 11.6 13.9335 12 14.2002 12H17.0002C17.177 12 17.3465 11.9298 17.4716 11.8048C17.5966 11.6797 17.6668 11.5102 17.6668 11.3334V5.62535C17.6669 5.53349 17.648 5.44261 17.6113 5.3584C17.5746 5.2742 17.5209 5.19849 17.4535 5.13602ZM5.00016 1.33335H13.0002L14.3335 4.00002H3.66683L5.00016 1.33335ZM5.66683 7.46669C5.66683 7.73335 5.26683 8.00002 5.00016 8.00002H2.20016C1.9335 8.00002 1.66683 7.60002 1.66683 7.33335V5.86669C1.80016 5.46669 2.06683 5.20002 2.46683 5.33335L5.1335 5.86669C5.40016 5.86669 5.66683 6.26669 5.66683 6.53335V7.46669ZM16.3335 7.33335C16.3335 7.60002 16.0668 8.00002 15.8002 8.00002H13.0002C12.7335 8.00002 12.3335 7.73335 12.3335 7.46669V6.53335C12.3335 6.26669 12.6002 5.86669 12.8668 5.86669L15.5335 5.33335C15.9335 5.20002 16.2002 5.46669 16.3335 5.86669V7.33335Z" fill="black"/>
</svg>
