<svg width="17" height="20" viewBox="0 0 17 20" fill="none" xmlns="http://www.w3.org/2000/svg">
<g clip-path="url(#clip0_601_3967)">
<path d="M14.3816 1.55679C13.4588 0.505004 11.7908 0.0540772 9.65679 0.0540772H3.46341C3.25227 0.0540446 3.04804 0.129356 2.88746 0.266465C2.72689 0.403573 2.6205 0.59348 2.58745 0.802024L0.00864517 17.1575C-0.0426131 17.48 0.207122 17.772 0.534009 17.772H4.35759L5.31785 11.6812L5.28805 11.872C5.35646 11.4414 5.72467 11.1239 6.1607 11.1239H7.97765C11.5471 11.1239 14.342 9.67408 15.1584 5.4801C15.1826 5.35606 15.2036 5.23534 15.2218 5.11739C15.1187 5.06282 15.1187 5.06282 15.2218 5.11739C15.4649 3.56726 15.2201 2.51209 14.3816 1.55679Z" fill="#27346A"/>
<path d="M6.7809 4.55898C6.8854 4.50913 6.99975 4.48333 7.11553 4.48348H11.971C12.546 4.48348 13.0823 4.5209 13.5724 4.59977C13.7095 4.62165 13.8459 4.64776 13.9814 4.67805C14.1735 4.72044 14.3634 4.77232 14.5503 4.83348C14.7912 4.91394 15.0156 5.00765 15.2218 5.11739C15.4649 3.56666 15.2201 2.51209 14.3816 1.55679C13.4583 0.505004 11.7908 0.0540771 9.65679 0.0540771H3.46288C3.02679 0.0540771 2.6558 0.371561 2.58745 0.802024L0.00864554 17.1569C-0.0426127 17.4799 0.207122 17.7716 0.53348 17.7716H4.35759L6.34984 5.13779C6.36944 5.01361 6.41892 4.89606 6.494 4.79523C6.56909 4.69441 6.66754 4.61333 6.7809 4.55898Z" fill="#27346A"/>
<path d="M15.1586 5.48002C14.3422 9.6734 11.5473 11.1238 7.97787 11.1238H6.16039C5.72436 11.1238 5.35608 11.4413 5.28834 11.8719L4.0937 19.4451C4.04906 19.7273 4.26734 19.9831 4.5529 19.9831H7.77608C7.96072 19.983 8.13928 19.9171 8.27965 19.7972C8.42002 19.6772 8.51299 19.5111 8.54184 19.3288L8.57324 19.1645L9.18072 15.3145L9.21986 15.1017C9.24871 14.9193 9.34167 14.7532 9.48203 14.6333C9.62239 14.5134 9.80093 14.4474 9.98555 14.4474H10.4679C13.5903 14.4474 16.0351 13.1789 16.7495 9.51029C17.0477 7.97718 16.8934 6.69718 16.1046 5.7981C15.8653 5.52579 15.5681 5.30089 15.222 5.11731C15.2032 5.23585 15.1829 5.35598 15.1586 5.48002Z" fill="#2790C3"/>
<path d="M14.3678 4.77671C14.2405 4.73954 14.112 4.70663 13.9825 4.67804C13.8469 4.64823 13.7105 4.6223 13.5734 4.60029C13.0828 4.52088 12.5469 4.4834 11.9714 4.4834H7.11655C7.00069 4.48321 6.88629 4.50922 6.78191 4.55949C6.66841 4.61365 6.56983 4.69467 6.4947 4.79553C6.41958 4.89639 6.37018 5.01404 6.35078 5.1383L5.31886 11.6812L5.28906 11.8719C5.35694 11.4414 5.72516 11.1239 6.16125 11.1239H7.97873C11.5481 11.1239 14.343 9.67406 15.1594 5.48009C15.1837 5.35605 15.2041 5.23585 15.2228 5.11737C15.0161 5.00832 14.7923 4.91386 14.5513 4.834C14.4905 4.81383 14.4293 4.79474 14.3679 4.77671" fill="#1F264F"/>
</g>
<defs>
<clipPath id="clip0_601_3967">
<rect width="16.9536" height="20" fill="white"/>
</clipPath>
</defs>
</svg>
