<svg width="19" height="21" viewBox="0 0 19 21" fill="none" xmlns="http://www.w3.org/2000/svg">
<path d="M12.9166 11.8247C13.5076 11.3719 13.942 10.7452 14.1585 10.0328C14.3751 9.32039 14.3629 8.55804 14.1239 7.85287C13.8848 7.1477 13.4308 6.53517 12.8256 6.10135C12.2205 5.66752 11.4946 5.43422 10.75 5.43422C10.0054 5.43422 9.27953 5.66752 8.67437 6.10135C8.06922 6.53517 7.6152 7.1477 7.37613 7.85287C7.13705 8.55804 7.12494 9.32039 7.34149 10.0328C7.55804 10.7452 7.99237 11.3719 8.58344 11.8247C7.47438 12.2389 6.50807 12.9637 5.8 13.9125C5.71049 14.0318 5.67206 14.1819 5.69315 14.3295C5.71425 14.4772 5.79315 14.6105 5.9125 14.7C6.03185 14.7895 6.18186 14.8279 6.32955 14.8068C6.47723 14.7857 6.61049 14.7068 6.7 14.5875C7.17156 13.9588 7.78303 13.4484 8.48598 13.097C9.18894 12.7455 9.96407 12.5625 10.75 12.5625C11.5359 12.5625 12.3111 12.7455 13.014 13.097C13.717 13.4484 14.3284 13.9588 14.8 14.5875C14.8895 14.7068 15.0228 14.7857 15.1705 14.8068C15.3181 14.8279 15.4682 14.7895 15.5875 14.7C15.7068 14.6105 15.7857 14.4772 15.8068 14.3295C15.8279 14.1819 15.7895 14.0318 15.7 13.9125C14.9919 12.9637 14.0256 12.2389 12.9166 11.8247ZM8.3125 9C8.3125 8.51791 8.45546 8.04664 8.72329 7.6458C8.99113 7.24495 9.37181 6.93253 9.81721 6.74804C10.2626 6.56356 10.7527 6.51528 11.2255 6.60934C11.6984 6.70339 12.1327 6.93554 12.4736 7.27643C12.8145 7.61732 13.0466 8.05164 13.1407 8.52447C13.2347 8.9973 13.1864 9.4874 13.002 9.93279C12.8175 10.3782 12.505 10.7589 12.1042 11.0267C11.7034 11.2945 11.2321 11.4375 10.75 11.4375C10.1035 11.4375 9.48355 11.1807 9.02643 10.7236C8.56931 10.2665 8.3125 9.64647 8.3125 9ZM17.5 0.9375H4C3.6519 0.9375 3.31806 1.07578 3.07192 1.32192C2.82578 1.56806 2.6875 1.9019 2.6875 2.25V4.6875H1C0.850816 4.6875 0.707742 4.74676 0.602252 4.85225C0.496763 4.95774 0.4375 5.10082 0.4375 5.25C0.4375 5.39918 0.496763 5.54226 0.602252 5.64775C0.707742 5.75324 0.850816 5.8125 1 5.8125H2.6875V9.9375H1C0.850816 9.9375 0.707742 9.99676 0.602252 10.1023C0.496763 10.2077 0.4375 10.3508 0.4375 10.5C0.4375 10.6492 0.496763 10.7923 0.602252 10.8977C0.707742 11.0032 0.850816 11.0625 1 11.0625H2.6875V15.1875H1C0.850816 15.1875 0.707742 15.2468 0.602252 15.3523C0.496763 15.4577 0.4375 15.6008 0.4375 15.75C0.4375 15.8992 0.496763 16.0423 0.602252 16.1477C0.707742 16.2532 0.850816 16.3125 1 16.3125H2.6875V18.75C2.6875 19.0981 2.82578 19.4319 3.07192 19.6781C3.31806 19.9242 3.6519 20.0625 4 20.0625H17.5C17.8481 20.0625 18.1819 19.9242 18.4281 19.6781C18.6742 19.4319 18.8125 19.0981 18.8125 18.75V2.25C18.8125 1.9019 18.6742 1.56806 18.4281 1.32192C18.1819 1.07578 17.8481 0.9375 17.5 0.9375ZM17.6875 18.75C17.6875 18.7997 17.6677 18.8474 17.6326 18.8826C17.5974 18.9177 17.5497 18.9375 17.5 18.9375H4C3.95027 18.9375 3.90258 18.9177 3.86742 18.8826C3.83225 18.8474 3.8125 18.7997 3.8125 18.75V2.25C3.8125 2.20027 3.83225 2.15258 3.86742 2.11742C3.90258 2.08225 3.95027 2.0625 4 2.0625H17.5C17.5497 2.0625 17.5974 2.08225 17.6326 2.11742C17.6677 2.15258 17.6875 2.20027 17.6875 2.25V18.75Z" fill="black"/>
</svg>
