<svg width="22" height="16" viewBox="0 0 22 16" fill="none" xmlns="http://www.w3.org/2000/svg">
<path d="M21.1456 6.96327L19.1616 5.12007L17.4016 1.60007C17.2504 1.3543 17.0386 1.15158 16.7863 1.01146C16.5341 0.871346 16.2501 0.798544 15.9616 0.800072H6.04156C5.75304 0.798544 5.46899 0.871346 5.21678 1.01146C4.96457 1.15158 4.75269 1.3543 4.60156 1.60007L2.84156 5.12007L0.857563 6.96327C0.776739 7.03823 0.712278 7.12908 0.668225 7.23013C0.624171 7.33118 0.601476 7.44024 0.601563 7.55047V14.4001C0.601563 14.6122 0.685848 14.8157 0.835877 14.9658C0.985906 15.1158 1.18939 15.2001 1.40156 15.2001H4.60156C4.92156 15.2001 5.40156 14.8801 5.40156 14.5601V13.6001H16.6016V14.4001C16.6016 14.7201 16.9216 15.2001 17.2416 15.2001H20.6016C20.8137 15.2001 21.0172 15.1158 21.1672 14.9658C21.3173 14.8157 21.4016 14.6122 21.4016 14.4001V7.55047C21.4016 7.44024 21.379 7.33118 21.3349 7.23013C21.2908 7.12908 21.2264 7.03823 21.1456 6.96327ZM6.20156 2.40007H15.8016L17.4016 5.60007H4.60156L6.20156 2.40007ZM7.00156 9.76007C7.00156 10.0801 6.52156 10.4001 6.20156 10.4001H2.84156C2.52156 10.4001 2.20156 9.92007 2.20156 9.60007V7.84007C2.36156 7.36007 2.68156 7.04007 3.16156 7.20007L6.36156 7.84007C6.68156 7.84007 7.00156 8.32007 7.00156 8.64007V9.76007ZM19.8016 9.60007C19.8016 9.92007 19.4816 10.4001 19.1616 10.4001H15.8016C15.4816 10.4001 15.0016 10.0801 15.0016 9.76007V8.64007C15.0016 8.32007 15.3216 7.84007 15.6416 7.84007L18.8416 7.20007C19.3216 7.04007 19.6416 7.36007 19.8016 7.84007V9.60007Z" fill="black"/>
</svg>
