<svg width="24" height="24" viewBox="0 0 24 24" fill="none" xmlns="http://www.w3.org/2000/svg">
<g clip-path="url(#clip0_646_1777)">
<path d="M8.35909 0.789433C5.96112 1.62131 3.89311 3.20024 2.45882 5.29431C1.02454 7.38838 0.299573 9.8872 0.390418 12.4237C0.481264 14.9603 1.38313 17.4008 2.96355 19.3869C4.54396 21.373 6.71962 22.8 9.17096 23.4582C11.1583 23.971 13.2405 23.9935 15.2385 23.5238C17.0484 23.1173 18.7218 22.2476 20.0947 21.0001C21.5236 19.662 22.5608 17.9597 23.0947 16.0763C23.6751 14.0282 23.7783 11.8743 23.3966 9.78006H12.2366V14.4094H18.6997C18.5705 15.1478 18.2937 15.8525 17.8859 16.4814C17.478 17.1102 16.9474 17.6504 16.326 18.0694C15.5367 18.5915 14.6471 18.9428 13.7141 19.1007C12.7784 19.2747 11.8186 19.2747 10.8828 19.1007C9.93444 18.9046 9.03727 18.5132 8.24846 17.9513C6.98124 17.0543 6.02973 15.7799 5.52971 14.3101C5.02124 12.8127 5.02124 11.1893 5.52971 9.69193C5.88564 8.64234 6.47403 7.68669 7.25096 6.89631C8.14007 5.97521 9.26571 5.3168 10.5044 4.99333C11.743 4.66985 13.0469 4.6938 14.2728 5.06256C15.2305 5.35654 16.1063 5.87019 16.8303 6.56256C17.5591 5.83756 18.2866 5.11068 19.0128 4.38193C19.3878 3.99006 19.7966 3.61693 20.166 3.21568C19.0608 2.1872 17.7635 1.38691 16.3485 0.860683C13.7717 -0.0749616 10.9522 -0.100106 8.35909 0.789433Z" fill="white"/>
<path d="M8.35875 0.789367C10.9516 -0.100776 13.7711 -0.0762934 16.3481 0.858742C17.7634 1.38855 19.0601 2.19269 20.1637 3.22499C19.7887 3.62624 19.3931 4.00124 19.0106 4.39124C18.2831 5.11749 17.5562 5.84124 16.83 6.56249C16.106 5.87012 15.2302 5.35648 14.2725 5.06249C13.047 4.69244 11.7432 4.66711 10.5042 4.98926C9.26516 5.31141 8.13883 5.96861 7.24875 6.88874C6.47181 7.67912 5.88342 8.63477 5.5275 9.68437L1.64062 6.67499C3.03189 3.91604 5.44078 1.80566 8.35875 0.789367Z" fill="#E33629"/>
<path d="M0.611401 9.6563C0.820316 8.62091 1.16716 7.61822 1.64265 6.67505L5.52953 9.69192C5.02105 11.1893 5.02105 12.8127 5.52953 14.31C4.23453 15.31 2.9389 16.315 1.64265 17.325C0.452308 14.9556 0.0892746 12.256 0.611401 9.6563Z" fill="#F8BD00"/>
<path d="M12.2391 9.77808H23.3991C23.7809 11.8723 23.6776 14.0262 23.0972 16.0743C22.5633 17.9577 21.5261 19.66 20.0972 20.9981C18.8429 20.0193 17.5829 19.0481 16.3285 18.0693C16.9504 17.6498 17.4812 17.1091 17.8891 16.4796C18.297 15.85 18.5735 15.1446 18.7022 14.4056H12.2391C12.2372 12.8643 12.2391 11.3212 12.2391 9.77808Z" fill="#587DBD"/>
<path d="M1.64062 17.3251C2.93687 16.3251 4.2325 15.3201 5.5275 14.3101C6.02851 15.7804 6.98138 17.0549 8.25 17.9513C9.04127 18.5106 9.94037 18.8988 10.89 19.0913C11.8257 19.2653 12.7855 19.2653 13.7213 19.0913C14.6542 18.9334 15.5439 18.5821 16.3331 18.0601C17.5875 19.0388 18.8475 20.0101 20.1019 20.9888C18.7292 22.237 17.0558 23.1073 15.2456 23.5144C13.2476 23.9841 11.1655 23.9616 9.17813 23.4488C7.60632 23.0291 6.13814 22.2893 4.86563 21.2757C3.51874 20.2063 2.41867 18.8588 1.64062 17.3251Z" fill="#319F43"/>
</g>
<defs>
<clipPath id="clip0_646_1777">
<rect width="24" height="24" fill="white"/>
</clipPath>
</defs>
</svg>
